<?xml version="1.0" encoding="UTF-8"?>
<svg id="Layer_1" xmlns="http://www.w3.org/2000/svg" version="1.1" viewBox="0 0 610.9 144.3">
  <!-- Generator: Adobe Illustrator 30.0.0, SVG Export Plug-In . SVG Version: 2.1.1 Build 123)  -->
  <defs>
    <style>
      .st0 {
        fill: #007aff;
      }

      .st1 {
        fill: #fff;
      }
    </style>
  </defs>
  <path class="st0" d="M72.2,0C32.4,0,0,32.4,0,72.2s32.4,72.2,72.2,72.2,72.2-32.4,72.2-72.2S112,0,72.2,0ZM66.7,13.7L25.7,108.2c-7.7-10-12.4-22.4-12.4-36,0-30.6,23.5-55.8,53.3-58.5ZM72.2,33.8l36.6,84.4c-10,8-22.7,12.8-36.6,12.8s-26.5-4.8-36.6-12.8l36.6-84.4ZM77.6,13.7c29.9,2.8,53.3,27.9,53.3,58.5s-4.6,26-12.4,36L77.6,13.7Z"/>
  <g>
    <path class="st1" d="M200.7,66.5c0,0-.2,0-.3,0-6.6-1.7-12.3-3.1-12.3-7.4s3.7-6.9,9.5-6.9,5.6.5,8.2,1.4l3.3-8.5c-3.2-1.1-6.8-1.7-10.7-1.7-12.2,0-20.3,7.1-20.3,16.3s9.9,14.3,18.8,16.5c.3,0,.7.2,1,.3,6.8,1.8,12.7,3.3,12.7,8.3s-3.2,7.6-11.2,7.6-5.8-.6-8.3-1.5l-3.3,8.5c3.3,1.1,7,1.7,11.2,1.7,15.1,0,21.6-7.9,21.6-17.2s-10.8-14.9-19.9-17.3Z"/>
    <path class="st1" d="M233.9,44.3h24.5c11.7,0,18.2,8,18.2,17.5s-6.6,17.5-18.2,17.5h-14.7v20.8h-9.8v-55.8ZM257,52.9h-13.4v17.7h13.4c5.5,0,9.5-3.5,9.5-8.9s-4-8.9-9.5-8.9Z"/>
    <path class="st1" d="M362.7,79.2h-9.7v20.8h-9.8v-55.8h24.5c11,0,18.2,7.2,18.2,17.5s-6.5,15.3-13.2,16.4l13.6,21.9h-11.3l-12.4-20.8ZM366.4,52.9h-13.4v17.7h13.4c5.5,0,9.5-3.5,9.5-8.9s-4-8.9-9.5-8.9Z"/>
    <path class="st1" d="M412.4,52.9h-16.9v-8.6h43.6v8.6h-16.9v47.2h-9.8v-47.2Z"/>
    <path class="st1" d="M506.6,44.3h20.8c17.4,0,29.2,11.5,29.2,27.9s-11.8,27.9-29.2,27.9h-20.8v-55.8ZM527.4,91.5c12.1,0,19.2-8.7,19.2-19.2s-6.7-19.3-19.2-19.3h-11v38.6h11Z"/>
    <path class="st1" d="M591,66.5c0,0-.2,0-.3,0-6.6-1.7-12.3-3.1-12.3-7.4s3.7-6.9,9.5-6.9,5.6.5,8.2,1.4l3.3-8.5c-3.2-1.1-6.8-1.7-10.7-1.7-12.2,0-20.3,7.1-20.3,16.3s9.9,14.3,18.8,16.5c.3,0,.7.2,1,.3,6.8,1.8,12.7,3.3,12.7,8.3s-3.2,7.6-11.2,7.6-5.8-.6-8.3-1.5l-3.3,8.5c3.3,1.1,7,1.7,11.2,1.7,15.1,0,21.6-7.9,21.6-17.2s-10.8-14.9-19.9-17.3Z"/>
    <polygon class="st1" points="304.8 57 322 100.1 332.5 100.1 310.3 44.3 299.3 44.3 277.2 100.1 287.7 100.1 304.8 57"/>
    <polygon class="st1" points="468.3 57 485.4 100.1 496 100.1 473.8 44.3 462.8 44.3 440.6 100.1 451.2 100.1 468.3 57"/>
  </g>
</svg>